<svg xmlns="http://www.w3.org/2000/svg" viewBox="0 0 187.77 220.82"><defs><style>.cls-1{fill:#55a6ff;}.cls-1,.cls-2,.cls-3,.cls-4,.cls-5,.cls-6,.cls-7{stroke:#54596e;stroke-width:3px;}.cls-2{fill:#fff;}.cls-3,.cls-5{fill:none;}.cls-4,.cls-7,.cls-8{fill:#54596e;}.cls-5{stroke-linecap:round;}.cls-6{fill:#fff35f;}.cls-7{stroke-linejoin:round;}</style></defs><g id="Layer_2" data-name="Layer 2"><g id="Layer_1-2" data-name="Layer 1"><path class="cls-1" d="M164,170.46s4.62,42.71-70.08,42.71S22.6,170.46,22.6,170.46C67.14,202.23,114.23,202.59,164,170.46Z"/><path class="cls-2" d="M29.31,100.21c-5.41,39.15-7.59,57.92-6.71,70.25s17.32,32.14,70.31,33.25,69.94-24.22,71.05-33.25,1.91-34.55-8.81-70.25"/><path class="cls-2" d="M40.87,110.69s-4,22.74-21.57,29.91-31.71-31.13,6.38-55.13C40.87,76.66,55,87.23,55,87.23s37-12.11,75.53,0C146.34,75.78,156.25,83,156.25,83s15.41,7.27,27.74,31.71-29.06,44.92-38.53-4"/><line class="cls-3" x1="93.37" y1="152.14" x2="93.38" y2="146.8"/><circle class="cls-4" cx="64.82" cy="125.29" r="3.39"/><circle class="cls-4" cx="122.2" cy="125.29" r="3.39"/><path class="cls-5" d="M79.06,156.7q14.31-9.12,28.63,0"/><circle class="cls-6" cx="93.93" cy="211.38" r="7.94"/><path class="cls-7" d="M86.68,140.59l2.37,4.4a1,1,0,0,0,.54.47,9.68,9.68,0,0,0,7.44,0,1,1,0,0,0,.49-.46l2.38-4.41a1,1,0,0,0-.36-1.33,11.56,11.56,0,0,0-12.51,0A1,1,0,0,0,86.68,140.59Z"/><path class="cls-8" d="M143.68,47.54l-3.9-2.12,1.14-2.11a5.64,5.64,0,0,1,1.44-1.88,8.69,8.69,0,0,1,2.4-1l3.89-1.16a3.46,3.46,0,0,0,1.95-1.71,3.3,3.3,0,0,0,.32-2.57,3.26,3.26,0,0,0-1.68-2,3.6,3.6,0,0,0-2.64-.38,3.76,3.76,0,0,0-2.19,1.61L140.23,32a8,8,0,0,1,5-3.52,8.72,8.72,0,0,1,6.08,1,8.41,8.41,0,0,1,4.11,4.39,6.7,6.7,0,0,1-.6,5.73,6,6,0,0,1-3,2.84,16.71,16.71,0,0,1-1.63.63c-.36.11-.82.24-1.4.39s-1.06.28-1.47.41-.74.23-1,.32A3.81,3.81,0,0,0,144.52,46Zm-6,6.65a3.07,3.07,0,0,1-1.48-1.76,2.71,2.71,0,0,1,.18-2.23,2.79,2.79,0,0,1,1.76-1.4,3,3,0,0,1,2.28.25,3.06,3.06,0,0,1,1.48,1.77,2.69,2.69,0,0,1-.18,2.22,2.79,2.79,0,0,1-1.76,1.4A3,3,0,0,1,137.64,54.19Z"/><path class="cls-8" d="M100.19,39.4l-8.74-1.48.8-4.72a11.12,11.12,0,0,1,1.51-4.48,17.35,17.35,0,0,1,3.89-3.44l6.61-4.69a6.93,6.93,0,0,0,2.59-4.5,6.65,6.65,0,0,0-1-5.07,6.52,6.52,0,0,0-4.47-2.71,7.09,7.09,0,0,0-5.23,1A7.42,7.42,0,0,0,93,13.74l-9.36-1.59a16.1,16.1,0,0,1,7.21-9.88A17.39,17.39,0,0,1,103,.32Q109.89,1.49,113.58,6c2.46,3,3.32,6.73,2.56,11.22a12,12,0,0,1-3.87,7.31c-1.19,1.07-2.09,1.82-2.69,2.25s-1.4,1-2.39,1.62-1.82,1.23-2.52,1.72-1.25.92-1.68,1.27a7.43,7.43,0,0,0-2.21,4.56ZM93.06,55.86a6.08,6.08,0,0,1-3.94-2.38A5.36,5.36,0,0,1,88,49.15a5.51,5.51,0,0,1,2.43-3.76,5.8,5.8,0,0,1,4.46-1,6,6,0,0,1,3.94,2.37A5.42,5.42,0,0,1,100,51.1a5.53,5.53,0,0,1-2.43,3.77A5.84,5.84,0,0,1,93.06,55.86Z"/><path class="cls-8" d="M56.48,54.14,51.2,56.71l-1.38-2.85a7.33,7.33,0,0,1-.91-3,11.44,11.44,0,0,1,.77-3.34l1.76-5.07A4.63,4.63,0,0,0,51.1,39a4.39,4.39,0,0,0-2.51-2.32,4.31,4.31,0,0,0-3.46.26,4.67,4.67,0,0,0-2.43,2.54,5,5,0,0,0,0,3.59l-5.65,2.74a10.65,10.65,0,0,1,.08-8.09A11.54,11.54,0,0,1,43,32a11,11,0,0,1,7.87-1,8.77,8.77,0,0,1,5.69,5,7.84,7.84,0,0,1,.73,5.42,22.57,22.57,0,0,1-.58,2.25c-.16.46-.38,1.06-.66,1.79s-.51,1.37-.69,1.9-.33,1-.43,1.33a5,5,0,0,0,.57,3.3ZM59,65.75a4,4,0,0,1-3,.23,3.54,3.54,0,0,1-2.25-1.9,3.69,3.69,0,0,1-.14-3,3.86,3.86,0,0,1,2-2.25,4,4,0,0,1,3-.23,3.56,3.56,0,0,1,2.26,1.9,3.69,3.69,0,0,1,.14,3A3.88,3.88,0,0,1,59,65.75Z"/></g></g></svg>